# xmcd
#
# Track frame offsets:
#	150
#	7135
#	24397
#	42260
#	62362
#	79522
#	100357
#	119920
#	136260
#	164340
#
# Disc length: 2650 seconds
#
# Revision: 1
# Processed by: cddbd v1.5.1PL0 Copyright (c) Steve Scherf et al.
# Submitted via: CDex 1.50Beta5
#
DISCID=7e0a580a
DTITLE=チューリップ - 2222年ピクニック/OTO GRA・音蔵シリーズ
DYEAR=1997
DGENRE=
TTITLE0=美しい星
TTITLE1=2222年ピクニック
TTITLE2=星をちりばめて
TTITLE3=心の中は白い画用紙
TTITLE4=星のコラージュ
TTITLE5=君の季節
TTITLE6=VOLUME 10(FULL)
TTITLE7=ホロスコープ・ラブ
TTITLE8=生まれる星
TTITLE9=アルバトロス
EXTD=
EXTT0=
EXTT1=
EXTT2=
EXTT3=
EXTT4=
EXTT5=
EXTT6=
EXTT7=
EXTT8=
EXTT9=
PLAYORDER=
